<svg xmlns="http://www.w3.org/2000/svg" viewBox="0 0 1079.87 1079.87"><defs><style>.cls-1{isolation:isolate;}.cls-2{fill:#008d36;}.cls-3{fill:#b1b1b1;mix-blend-mode:multiply;}.cls-4{fill:#fff;}</style></defs><title>Prancheta 1</title><g class="cls-1"><g id="Camada_1" data-name="Camada 1"><path class="cls-2" d="M1079.87,539.93c0,298.2-241.74,539.94-539.94,539.94q-14.95,0-29.69-.81c-174.16-9.43-326.35-101.4-418.18-237.46h0V580.2c0-15.25-91.42-70.62-90.19-85.55C24.88,217.64,257,0,539.93,0c284.41,0,517.46,219.89,538.4,498.94Q1079.86,519.24,1079.87,539.93Z"/><path class="cls-3" d="M1079.87,539.93c0,298.2-241.74,539.94-539.94,539.94q-14.95,0-29.69-.81L92.06,841.59,408.79,569.38,511.57,162.19l566.76,336.74Q1079.86,519.24,1079.87,539.93Z"/><path class="cls-4" d="M674.57,636.2c4.89,10.61,21.89,31.29,14.76,53-8.24,25.14-34.83,28.46-34.83,40.73,0,6.11,3.73,30.28-.39,40-8.92,21.12-40.83,41.08-78.16,44.69-53.18,5.15-139.88,14.6-336.77-21.08h0c-1.49.12-7.13.37-25.23.69-11.28.19,6.14,46.38,6.14,46.38-33.43.62-80.56.89-128,1h0A537.38,537.38,0,0,1,0,539.93q0-22.88,1.87-45.28c69.87.21,146.66.11,194.55-1,0,0-13,21.07,2.23,20.7,43.94-1.07,41.81-2,45.62-2.64,15-2.37,35.71-11.13,55.39-56.1,37-84.46,40.47-109.1,72.16-130.21,16.52-11,32.08-23.94,43.45-51.29,9-21.69,15.38-52.45,17.48-98.53.32-7.17,7.4-29.37,15.85-31.18,20.81-4.45,57.33,2.18,74,55.5,3.57,11.41,9.56,52.9-2,84.85-8.09,23.26-21,51.35-37.89,81.13-25.3,38.1,5,47.5,9.06,47.5H648.1s17.49-2,32.63,8.64c14.71,10.29,27.1,32.89,26.72,49.82-.78,34.36-29.44,46.39-29.44,57.68,0,5.73,30.3,26.65,29.45,52.27C706.63,606.7,669.36,624.93,674.57,636.2Z"/></g></g></svg>