<svg xmlns="http://www.w3.org/2000/svg" viewBox="0 0 1081.25 1081.26"><defs><style>.cls-1{isolation:isolate;}.cls-2{fill:#e20613;}.cls-3{fill:#b1b1b1;mix-blend-mode:multiply;}.cls-4{fill:#fff;}</style></defs><title>Prancheta 1</title><g class="cls-1"><g id="Camada_1" data-name="Camada 1"><path class="cls-2" d="M1081.25,540.63a544.47,544.47,0,0,1-6.84,86.22C1036.67,862.3,846.9,1047,608.95,1077a546.12,546.12,0,0,1-68.33,4.28c-279.05,0-508.72-211.43-537.56-482.83h0c-2-19,87.15-58.47,87.15-78C90.21,413.89,84,251,84,251,179.93,100.13,348.58,0,540.62,0,839.21,0,1081.25,242,1081.25,540.63Z"/><path class="cls-3" d="M1074.41,626.85C1036.67,862.3,846.9,1047,608.95,1077L3.06,598.43l371.84-96,245-212.72Z"/><path class="cls-4" d="M678.87,563.46c0,11.31,28.7,23.35,29.48,57.76.38,16.95-12,39.57-26.75,49.89-15.16,10.61-32.68,8.64-32.68,8.64H492.39c-4.09,0-34.4,9.41-9.07,47.57,16.87,29.81,29.84,57.94,37.94,81.23,11.56,32,5.57,73.53,2,85-16.68,53.38-53.24,60-74.08,55.56-8.45-1.8-15.54-24-15.87-31.22-2.1-46.13-8.48-76.93-17.5-98.65-11.38-27.37-27-40.33-43.5-51.35C340.57,746.71,337.05,722,300,637.47c-19.7-45-40.4-53.79-55.46-56.17-3.81-.6-1.68-1.56-45.68-2.64-15.26-.37-2.23,20.72-2.23,20.72-47.68-1.06-124-1.17-193.61-1A544.45,544.45,0,0,1,0,540.63,538.09,538.09,0,0,1,84,251c50.23,0,100.95.31,136.33,1,0,0-17.44,46.24-6.15,46.44,18.26.31,23.87.55,25.3.68C436.63,263.4,523.43,272.87,576.68,278c37.38,3.61,69.33,23.6,78.26,44.74,4.12,9.75.39,34,.39,40.08,0,12.28,26.62,15.6,34.88,40.77,7.14,21.76-9.88,42.46-14.77,53.09-5.22,11.28,32.1,29.52,32.93,54.42C709.22,536.77,678.87,557.72,678.87,563.46Z"/></g></g></svg>