<svg id="Camada_1" data-name="Camada 1" xmlns="http://www.w3.org/2000/svg" viewBox="0 0 1760.91 1069.84"><defs><style>.cls-1{fill:#c5e8e5;}.cls-2{fill:#b3d4d1;}.cls-3{fill:#e3c485;}.cls-4{fill:#ffedc7;}.cls-5{fill:#c4a870;}.cls-6{fill:gray;}.cls-7{fill:#919191;}.cls-8{fill:#fbb03b;}.cls-9{fill:#ff7543;}.cls-10{fill:#f7931e;}.cls-11{fill:#ff7bac;}.cls-12{fill:#c1272d;}.cls-13{fill:#4a6680;}.cls-14{fill:#ff931e;}.cls-15{fill:#fff;}.cls-16{fill:#00a99d;}.cls-17{fill:#aa7764;}.cls-17,.cls-18,.cls-19,.cls-20,.cls-21,.cls-22,.cls-24,.cls-25,.cls-26,.cls-27,.cls-28,.cls-29,.cls-30,.cls-32,.cls-33,.cls-35,.cls-36,.cls-37,.cls-41,.cls-42,.cls-43,.cls-45,.cls-46,.cls-47,.cls-48{fill-rule:evenodd;}.cls-18,.cls-40{fill:#fcdabe;}.cls-19,.cls-23{fill:#2c8245;}.cls-20{fill:#5ebf79;}.cls-21{fill:#e0ba9b;}.cls-22,.cls-31{fill:#425156;}.cls-24{fill:#bf9470;}.cls-25{fill:#fcc379;}.cls-26{fill:#e8972d;}.cls-27{fill:#4e6078;}.cls-28{fill:#869ab5;}.cls-29{fill:#e3687f;}.cls-30,.cls-34{fill:#dea97e;}.cls-32{fill:#ba885f;}.cls-33,.cls-36{fill:#6b503f;}.cls-35{fill:#a17049;}.cls-36{stroke:#6b503f;stroke-miterlimit:22.93;stroke-width:0.22px;}.cls-37,.cls-38{fill:#a6b8cf;}.cls-39,.cls-41{fill:#e82c4f;}.cls-42{fill:#fa7d94;}.cls-43,.cls-44{fill:#f5b158;}.cls-45{fill:#bd1837;}.cls-46{fill:#e88c6a;}.cls-47{fill:#ff94a8;}.cls-48{fill:#f5a487;}</style></defs><title>Prancheta 1</title><rect class="cls-1" y="425.05" width="1760.91" height="581.56"/><rect class="cls-2" y="397.62" width="1760.91" height="27.43"/><rect class="cls-3" y="1006.61" width="1760.91" height="63.23"/><rect class="cls-4" x="317.74" y="1038.22" width="443.67" height="31.62"/><rect class="cls-5" x="764.34" y="1038.22" width="443.67" height="31.62"/><rect class="cls-5" x="1331" y="1006.61" width="429.91" height="31.61"/><rect class="cls-4" x="887.34" y="1006.61" width="443.67" height="31.61"/><rect class="cls-4" x="1651.68" y="1038.22" width="109.23" height="31.62"/><rect class="cls-5" y="1006.61" width="443.67" height="31.61"/><rect class="cls-6" x="461.85" y="533.56" width="837.22" height="221.53"/><polygon class="cls-7" points="447.21 800.39 447.21 975.27 447.21 1006.61 532.22 1006.61 532.22 975.27 1228.7 975.27 1228.7 1006.61 1313.7 1006.61 1313.7 975.27 1313.7 800.39 447.21 800.39"/><rect class="cls-8" x="447.21" y="731.99" width="866.49" height="136.8" rx="1" ry="1"/><path class="cls-9" d="M488.12,622.59H878.46a2,2,0,0,1,2,2v93.6a1,1,0,0,1-1,1H487.12a1,1,0,0,1-1-1v-93.6A2,2,0,0,1,488.12,622.59Z"/><path class="cls-9" d="M882.46,622.59h390.33a2,2,0,0,1,2,2v93.6a1,1,0,0,1-1,1H881.46a1,1,0,0,1-1-1v-93.6A2,2,0,0,1,882.46,622.59Z"/><path class="cls-10" d="M1320.77,935.69a7,7,0,0,1-7-7V762.25a30.34,30.34,0,0,0-30.31-30.3h-806a30.34,30.34,0,0,0-30.31,30.3V928.69a7,7,0,1,1-14,0V762.25A44.34,44.34,0,0,1,477.44,718h806a44.34,44.34,0,0,1,44.29,44.29V928.69A7,7,0,0,1,1320.77,935.69Z"/><polygon class="cls-7" points="1604 1006.61 1581.37 1006.61 1554.07 864.47 1576.7 864.47 1604 1006.61"/><polyline class="cls-7" points="1444.2 1006.61 1471.5 864.47 1448.87 864.47 1421.57 1006.61"/><rect class="cls-3" x="1412.98" y="749.89" width="199.6" height="123.52"/><rect class="cls-5" x="1429.92" y="765.71" width="165.73" height="91.87"/><circle class="cls-7" cx="1512.78" cy="811.65" r="11.69"/><rect class="cls-11" x="1543.46" y="697.16" width="20.08" height="85.37" transform="translate(813.65 2293.35) rotate(-90)"/><rect class="cls-12" x="1541.89" y="682.54" width="23.22" height="71.31" transform="translate(835.3 2271.7) rotate(-90)"/><rect class="cls-13" x="1561.04" y="661.21" width="11.61" height="79.15" transform="translate(866.06 2267.63) rotate(-90)"/><rect class="cls-14" x="1543.78" y="649.6" width="11.61" height="79.15" transform="translate(860.41 2238.75) rotate(-90)"/><rect class="cls-7" x="183.71" y="425.05" width="28.05" height="583.65"/><path class="cls-7" d="M249.32,1008.7H146.15c0-14.77,23.09-26.75,51.58-26.75S249.32,993.93,249.32,1008.7Z"/><rect class="cls-4" x="129.76" y="342.24" width="135.94" height="217.94"/><rect class="cls-7" x="1459.56" y="631.55" width="13.67" height="118.34"/><path class="cls-7" d="M1491.54,749.89h-50.28c0-7.2,11.26-13,25.14-13S1491.54,742.69,1491.54,749.89Z"/><rect class="cls-4" x="1433.27" y="557.75" width="66.26" height="106.22"/><rect class="cls-5" x="461.85" width="837.22" height="266.08"/><rect class="cls-15" x="492.32" y="25.08" width="776.27" height="215.93"/><rect class="cls-16" x="594.92" y="77.95" width="571.08" height="110.18"/><path class="cls-17" d="M886.8,299.84c-127.75,2-213.87,250.07-7.18,256.24C1113.73,563.07,1014.54,297.81,886.8,299.84Z"/><path class="cls-18" d="M849,975.42c-8.68,12.57-20.25,19.8-23.13,28.87-1.63,5.13-.42,11.61,4.79,12.25,22.41,2.77,28.93-8.24,36.91-10.48,13.8-3.87,14.15-11.81,8.57-30.64S856,963.66,849,975.42Z"/><path class="cls-18" d="M835.91,736.56H938.47L925.38,975.42H898.25l-5.52-181.67c-.44-14.4-10.64-14.49-11.08,0l-5.52,181.67H849Z"/><path class="cls-18" d="M930.71,593.78l53.94,70.08c7.67,10,27.27-9.53,21.4-19.38L963.7,573.33C948.43,547.67,913.38,571.28,930.71,593.78Z"/><path class="cls-18" d="M842.19,593.78l-53.94,69.55c-7.7,9.93-27.3-9.54-21.4-19.37l42.36-70.63C824.55,547.72,859.6,571.34,842.19,593.78Z"/><path class="cls-19" d="M809.22,573.29c9.79-16.28,27.55-12.6,34.65-2l-15,39.62Z"/><path class="cls-18" d="M949.86,683.2h0c.12-1.17-1.69-1.57-2.78-1.07l-16.2,7.3c-1.1.49-1.08,1.73-1.19,2.9h0c-.12,1.17,1.68,1.57,2.78,1.07l16.2-7.3A2.3,2.3,0,0,0,949.86,683.2Z"/><path class="cls-18" d="M823,683.2h0c-.12-1.17,1.69-1.57,2.78-1.07l16.2,7.3c1.1.49,1.07,1.73,1.19,2.9h0c.12,1.17-1.68,1.57-2.78,1.07l-16.2-7.3A2.3,2.3,0,0,1,823,683.2Z"/><path class="cls-19" d="M964.86,573.29c-9.8-16.28-27.55-12.6-34.65-2l15,39.62Z"/><polygon class="cls-20" points="948.24 561.67 938.47 736.56 886.35 736.56 835.91 736.56 826.14 561.67 948.24 561.67"/><path class="cls-19" d="M856.52,561.67h60.81a21.15,21.15,0,0,1-30.4,29.25,21.15,21.15,0,0,1-30.4-29.25Z"/><path class="cls-18" d="M887.19,466.89h0a29.59,29.59,0,0,1,29.5,29.5v64.06a29.59,29.59,0,0,1-29.5,29.5h0a29.59,29.59,0,0,1-29.51-29.5V496.39A29.59,29.59,0,0,1,887.19,466.89Z"/><path class="cls-21" d="M916.7,539.9h0c0,24.64-59,24.64-59,0h0C857.69,515.26,916.7,515.26,916.7,539.9Z"/><path class="cls-18" d="M887.19,314C758.1,314,768,435,792.61,477.61c33.62,58.11,78.82,71,94.58,71s61-12.86,94.57-71C1006.4,435,1016.28,314,887.19,314Z"/><polygon class="cls-22" points="833.74 697.65 839.71 805.86 934.41 805.86 940.63 697.88 833.74 697.65"/><path class="cls-18" d="M925.44,975.42c8.68,12.57,20.25,19.8,23.13,28.87,1.63,5.13.42,11.61-4.79,12.25-22.41,2.77-28.93-8.24-36.91-10.48-13.8-3.87-14.15-11.81-8.57-30.64S918.46,963.66,925.44,975.42Z"/><path class="cls-18" d="M772.77,417.29c8.4-2.08,18.6,9.14,22.78,25.08s.77,30.54-7.62,32.62-18.6-9.14-22.78-25.08S764.37,419.38,772.77,417.29Z"/><path class="cls-18" d="M1001.67,417.29c-8.4-2.08-18.6,9.14-22.78,25.08s-.77,30.54,7.62,32.62,18.6-9.14,22.78-25.08S1010.06,419.38,1001.67,417.29Z"/><path class="cls-22" d="M921.68,453.92c4.41,0,8-6.41,8-14.26s-3.59-14.26-8-14.26-8,6.41-8,14.26S917.27,453.92,921.68,453.92Z"/><path class="cls-22" d="M852.7,453.92c4.41,0,8-6.41,8-14.26s-3.6-14.26-8-14.26-8,6.41-8,14.26S848.29,453.92,852.7,453.92Z"/><path class="cls-21" d="M903.39,470c-6.22,15.41-26.17,15.14-32.39,0A23.53,23.53,0,0,0,903.39,470Z"/><path class="cls-19" d="M833.14,993.4c-3.37,3.65-6.08,7.1-7.28,10.88-4.09,12.85,6.68,13.46,16.21,12.47,13.59-1.4,19.07-8.89,25.49-10.69,12.4-3.48,13.94-10.24,10.08-25.23-.53,13.08-21.18,21.52-26.35,23.08S834.12,998.5,833.14,993.4Z"/><path class="cls-19" d="M941.3,993.4c3.37,3.65,6.08,7.1,7.28,10.88,4.37,13.71-8.65,13.75-18.39,12.18-12-1.93-17.24-8.7-23.31-10.41-12.4-3.48-13.94-10.24-10.08-25.23.53,13.08,21.27,22.7,26.66,23.08S943.08,995,941.3,993.4Z"/><path class="cls-18" d="M948.66,680.79l36.06-41.55c18.32-7.87,35.18,15.47,13.74,26.86l-37.92,35.67Z"/><path class="cls-18" d="M944.17,683.73l6.45-4,11.93,21.2-6.45,4.05C936.27,716.61,920.15,698,944.17,683.73Z"/><path class="cls-18" d="M824.24,680.79l-36.06-42.09c-18.32-7.86-35.18,15.48-13.74,26.86l37.92,36.2Z"/><path class="cls-18" d="M828.73,683.73l-6.45-4.05-11.93,21.2,6.45,4.05C836.63,716.61,852.75,698,828.73,683.73Z"/><path class="cls-23" d="M857.54,1001.94a5.74,5.74,0,0,0-.43-1.35c-1.26-2.86-4.51-6.06-8.38-8.45s-8.66-3.77-12-3.33c1.71-1.76,3.49-3.61,5.26-5.59a34.27,34.27,0,0,1,10,3.86c4.84,3,9,7.21,10.74,11.17a11.54,11.54,0,0,1,.84,2.76Z"/><path class="cls-23" d="M917.18,1001.94a5.7,5.7,0,0,1,.43-1.35c1.26-2.86,4.51-6.06,8.38-8.45s8.66-3.77,12-3.33c-1.71-1.76-3.49-3.61-5.26-5.59a34.33,34.33,0,0,0-10,3.86c-4.84,3-9,7.21-10.74,11.17a11.38,11.38,0,0,0-.84,2.76Z"/><path class="cls-24" d="M921.46,492.93c-12.59,12.53-54.2,12.37-67.54,0C875.93,496.9,902.19,496.27,921.46,492.93Z"/><path class="cls-21" d="M903.38,504.71c-5.85,7.72-25.18,7.6-31.38,0C881,508.29,894.33,508.3,903.38,504.71Z"/><path class="cls-17" d="M799.85,438.33c-3.91,15.71-7,15.38-13.34,1.54s-16.66-21-14.19-34.45c23.58-128.75,213-123.48,226.31-3.12,1.5,13.63-4.49,23.73-10.83,37.57s-9.49,19.21-12,1.64C961.68,341.79,832.71,306.12,799.85,438.33Z"/><path class="cls-17" d="M887.26,310.84c-79.16.63-98.64,44.66-110.36,79.41,6.93,9.24,1.4-2.34,10.84,7.66,55.41,20.67,143.75,20.61,196.69,0,10.26-10.88-.77-1.68,6.37-11.68C976.93,346.89,948.48,310.34,887.26,310.84Z"/><path class="cls-25" d="M794.94,439.14c19-110.85,163.75-103.85,184.51-4C1005.88,295.44,773.92,282,794.94,439.14Z"/><path class="cls-18" d="M1555,752.79l-5.31-71.5c-4.59-18.95-29.14-16.68-25.55,6.81l6.49,68.13Z"/><path class="cls-18" d="M1665.61,752.79l5.31-71.5c4.59-18.95,29.39-18.52,25.8,5l-6.74,70Z"/><path class="cls-26" d="M1609.44,307.23C1571,293.72,1537,322.31,1518,348.87c-62.59,87.89-4.57,277.22,92.47,277.22,95.21,0,152.4-182.24,95.22-272.13C1687,324.54,1654.05,293.72,1609.44,307.23Z"/><path class="cls-27" d="M1563.51,581.78l-14.84,100.95c-1.81,12.31-26.34,5.57-26.1-5.81l1.94-92.11C1525.12,555.17,1567.6,554,1563.51,581.78Z"/><path class="cls-27" d="M1657.07,581.78l14.84,100.95c1.81,12.31,26.34,5.57,26.1-5.81l-1.94-92.1C1695.46,555.18,1653,554,1657.07,581.78Z"/><polygon class="cls-18" points="1671.57 561.67 1648.18 736.56 1609.68 736.56 1569.79 736.56 1549.47 561.67 1671.57 561.67"/><path class="cls-18" d="M1572.32,975.42c-8.68,12.57-20.24,19.8-23.13,28.87-1.63,5.13-.42,11.61,4.79,12.25,22.41,2.77,28.93-8.24,36.91-10.48,13.8-3.87,14.15-11.81,8.57-30.64S1579.31,963.66,1572.32,975.42Z"/><path class="cls-18" d="M1559.24,736.56H1661.8l-13.08,238.86h-27.14l-5.52-181.67c-.44-14.4-10.64-14.49-11.07,0l-5.52,181.67h-27.14Z"/><path class="cls-18" d="M1667.67,750.64h0c-1-.67-2.23.67-2.32,1.84l-1.29,17.31c-.09,1.17,1,1.75,2,2.42h0c1,.67,2.23-.67,2.32-1.84l1.29-17.31A2.34,2.34,0,0,0,1667.67,750.64Z"/><path class="cls-18" d="M1665.31,758l.57-7.44,24.59,3.54-.56,7.44C1687.52,784,1662.52,785.25,1665.31,758Z"/><path class="cls-18" d="M1610.52,466.89h0a29.59,29.59,0,0,1,29.51,29.5v64.06a29.59,29.59,0,0,1-29.51,29.5h0a29.59,29.59,0,0,1-29.5-29.5V496.39A29.59,29.59,0,0,1,1610.52,466.89Z"/><path class="cls-21" d="M1640,539.9h0c0,24.64-59,24.64-59,0h0C1581,515.26,1640,515.26,1640,539.9Z"/><path class="cls-18" d="M1610.52,314c-129.09,0-119.21,121-94.58,163.6,33.61,58.11,78.82,71,94.58,71s61-12.86,94.58-71C1729.73,435,1739.61,314,1610.52,314Z"/><path class="cls-18" d="M1552.9,750.64h0c1-.67,2.22.67,2.31,1.84l1.29,17.31c.09,1.17-1,1.75-2,2.42h0c-1,.67-2.23-.67-2.32-1.84l-1.29-17.31A2.34,2.34,0,0,1,1552.9,750.64Z"/><path class="cls-18" d="M1555.26,758l-.56-7.44-24.6,3.54.56,7.44C1533.05,784,1558.05,785.26,1555.26,758Z"/><path class="cls-27" d="M1695.74,580.92l.72,22-27.72,9.53-6.94,124.14H1559.24l-6.83-122.3-28.31-10.13.41-19.32C1574.65,600.07,1627.54,611.83,1695.74,580.92Z"/><polygon class="cls-28" points="1557.45 704.48 1563.8 850.97 1658.5 850.97 1663.59 704.48 1557.45 704.48"/><path class="cls-18" d="M1648.77,975.42c8.69,12.57,20.25,19.8,23.14,28.87,1.63,5.13.42,11.61-4.79,12.25-22.41,2.77-28.93-8.24-36.91-10.48-13.8-3.87-14.15-11.81-8.57-30.64S1641.79,963.66,1648.77,975.42Z"/><path class="cls-18" d="M1496.1,417.29c8.4-2.08,18.6,9.14,22.79,25.08s.77,30.54-7.63,32.62-18.6-9.14-22.78-25.08S1487.7,419.38,1496.1,417.29Z"/><path class="cls-18" d="M1725,417.29c-8.39-2.08-18.59,9.14-22.78,25.08s-.77,30.54,7.63,32.62,18.59-9.14,22.78-25.08S1733.39,419.38,1725,417.29Z"/><path class="cls-22" d="M1645,453.92c4.41,0,8-6.41,8-14.26s-3.6-14.26-8-14.26-8,6.41-8,14.26S1640.6,453.92,1645,453.92Z"/><path class="cls-22" d="M1576,453.92c4.41,0,8-6.41,8-14.26s-3.6-14.26-8-14.26-8,6.41-8,14.26S1571.62,453.92,1576,453.92Z"/><path class="cls-24" d="M1652.17,491.31c-15.52,15.46-66.84,15.26-83.31,0C1591.71,500.83,1627,500.69,1652.17,491.31Z"/><path class="cls-21" d="M1626.71,470c-6.21,15.41-26.17,15.14-32.39,0A23.53,23.53,0,0,0,1626.71,470Z"/><path class="cls-26" d="M1532.88,392.81c-19.55,17.13-18.32,41.88-17,59s-6.22,5.05-10.85-8.4-7.92-27-6.88-42.2S1542.2,361.74,1532.88,392.81Z"/><path class="cls-26" d="M1688.28,392.81c19.55,17.13,18.32,41.88,17,59s6.23,5.05,10.85-8.4,7.92-27,6.88-42.2S1679,361.74,1688.28,392.81Z"/><path class="cls-29" d="M1556.47,993.4c-3.37,3.65-6.08,7.1-7.28,10.88-4.22,13.25,7.58,13.6,17.22,12.36,12.85-1.66,18.22-8.82,24.48-10.58,12.4-3.48,13.94-10.24,10.08-25.23-.53,13.08-12.77,16.64-26.35,23.08S1550.08,1004,1556.47,993.4Z"/><path class="cls-29" d="M1664.63,993.4c3.37,3.65,6.08,7.1,7.28,10.88,4.83,15.17-12.39,14-22.13,11.39-9.44-2.56-14.17-8.09-19.57-9.61-12.4-3.48-13.94-10.24-10.08-25.23.53,13.08,12.77,16.64,26.35,23.08S1671,1004,1664.63,993.4Z"/><path class="cls-21" d="M1629.87,505.84c-7.21,9.52-31.05,9.37-38.7,0C1602.32,510.25,1618.72,510.27,1629.87,505.84Z"/><path class="cls-26" d="M1641.4,407.66c7.85-1.85,16.87,2.43,20.74,9.24,1.94,3.41.62,3.82-.7,1.73-5.11-8.11-12.78-8.88-19.55-7.47C1638.31,411.9,1637.38,408.6,1641.4,407.66Z"/><path class="cls-26" d="M1579.7,407.66c-7.85-1.85-16.87,2.43-20.74,9.24-1.94,3.41-.61,3.82.7,1.73,5.11-8.11,12.78-8.88,19.54-7.47C1582.79,411.9,1583.71,408.6,1579.7,407.66Z"/><path class="cls-27" d="M1551.81,710.19l-4-41c-4.59-18.95-28.45-11.64-24.86,11.85l2.45,31.11,26.41-2Z"/><path class="cls-27" d="M1668.66,710.19l3.54-39.6c4.59-18.95,28.61-7.83,25,15.66l-2.15,25.91-26.42-2Z"/><polygon class="cls-29" points="1549.47 561.67 1554.15 645.44 1557.45 704.48 1663.59 704.48 1666.76 647.71 1671.57 561.67 1640.02 560.46 1610.28 658.74 1581.04 561.67 1549.47 561.67"/><path class="cls-26" d="M1611.1,347.14c71.56,16.37,92.13,61.16,96.21,92,5.28-4.44,15.38-17.39,15.13-32.4-.41-25-13.9-54.71-34.77-72.28-22.74-19.15-59-32-76.57-25.92-17.56-6.11-53.83,6.77-76.57,25.92-20.87,17.57-34.36,47.28-34.77,72.28-.25,15,9.85,28,15.13,32.4C1519,408.31,1539.54,363.51,1611.1,347.14Z"/><path class="cls-25" d="M1550.84,587.75c-62.51-186.06,30.11-239.13,60.26-240.61C1560.84,352,1449,408.25,1550.84,587.75Z"/><path class="cls-25" d="M1671.36,587.75c62.51-186.06-30.1-239.13-60.26-240.61C1661.36,352,1773.25,408.25,1671.36,587.75Z"/><path class="cls-30" d="M553.5,577.59l29.11,100.86a24.38,24.38,0,0,0,30.1,16.62h0A24.38,24.38,0,0,0,629.33,665L600.22,564.1C591.77,534.8,545.48,549.8,553.5,577.59Z"/><path class="cls-28" d="M589.81,959.76c11.62,17.3,27.09,27.25,31,39.74,6.2,20-14.42,19.2-27.52,16.2-14-3.22-20.66-11.56-28.28-13.76-18.46-5.33-18.94-16.25-11.47-42.18S580.47,943.57,589.81,959.76Z"/><path class="cls-28" d="M471.86,959.76c-11.62,17.3-27.09,27.25-31,39.74-6.42,20.73,16.21,19.29,29.26,15.77,12.87-3.48,19.25-11.22,26.54-13.32,18.47-5.33,18.94-16.25,11.47-42.18S481.21,943.57,471.86,959.76Z"/><path class="cls-30" d="M436.44,730.5h0a5.93,5.93,0,0,1,8.36,0L455,740.62a5.92,5.92,0,0,1,0,8.36h0a5.93,5.93,0,0,1-8.36,0l-10.15-10.13A5.92,5.92,0,0,1,436.44,730.5Z"/><path class="cls-26" d="M579.16,736.3H448.51l10.77,237.92h54.27L502.78,801.44c-.92-14.78,20.07-14.68,22.12,0L549,974.22h54.27Z"/><path class="cls-30" d="M472.69,583.44l-51.81,91.3a24.38,24.38,0,0,1-33.14,9.14h0a24.38,24.38,0,0,1-9.14-33.14l51.81-91.3C445.45,532.92,487,558.29,472.69,583.44Z"/><path class="cls-28" d="M472.69,583.44l-33.93,59.78-40-28.08,31.62-55.71C445.45,532.92,487,558.29,472.69,583.44Z"/><path class="cls-28" d="M553.5,577.59l17.7,61.34,46.93-12.73L600.22,564.1C591.77,534.8,545.48,549.8,553.5,577.59Z"/><rect class="cls-31" x="448.51" y="548.18" width="130.65" height="205.99"/><path class="cls-28" d="M477.52,548.18h72.62v4.56A36.42,36.42,0,0,1,513.84,589h0a36.42,36.42,0,0,1-36.31-36.31Z"/><path class="cls-30" d="M513.83,451.07h0a29.59,29.59,0,0,0-29.5,29.51v67.6a29.59,29.59,0,0,0,29.5,29.5h0a29.59,29.59,0,0,0,29.5-29.5v-67.6A29.59,29.59,0,0,0,513.83,451.07Z"/><path class="cls-32" d="M484.33,526.17h0c0,25.34,59,25.34,59,0h0C543.34,500.83,484.33,500.83,484.33,526.17Z"/><path class="cls-33" d="M441.59,508.16A35.18,35.18,0,1,0,406.4,473,35.25,35.25,0,0,0,441.59,508.16Z"/><path class="cls-33" d="M579.29,509.33a35.18,35.18,0,1,0-35.18-35.18A35.25,35.25,0,0,0,579.29,509.33Z"/><path class="cls-33" d="M415.53,481.51a35.18,35.18,0,1,0-35.18-35.19A35.25,35.25,0,0,0,415.53,481.51Z"/><path class="cls-33" d="M601.92,479a35.18,35.18,0,1,0-35.18-35.18A35.25,35.25,0,0,0,601.92,479Z"/><path class="cls-33" d="M410.48,447.89a35.18,35.18,0,1,0-35.18-35.19A35.25,35.25,0,0,0,410.48,447.89Z"/><path class="cls-33" d="M607,442.43a35.18,35.18,0,1,0-35.18-35.19A35.25,35.25,0,0,0,607,442.43Z"/><path class="cls-30" d="M513.83,293.79c166.25,0,126.19,241.3,0,241.3S347.58,293.79,513.83,293.79Z"/><path class="cls-30" d="M446.7,737.61,444.42,730l-24.66.27-21.09,12.93,2.27,7.61C410.94,784.45,458.3,776.52,446.7,737.61Z"/><path class="cls-30" d="M444.42,730l-20.75-73.09a24.27,24.27,0,0,0-30.25-16.35h0a24.38,24.38,0,0,0-16.35,30.25l21.6,72.38Z"/><path class="cls-30" d="M590.61,753.24h0a5.93,5.93,0,0,0-5.78,6l.31,14.34a5.92,5.92,0,0,0,6,5.78h0a5.93,5.93,0,0,0,5.78-6L596.64,759A5.93,5.93,0,0,0,590.61,753.24Z"/><path class="cls-30" d="M584.83,759.28l-.05-7.94,21.53-7.65,26.08,6.91.05,7.94C632.7,793.64,585.09,799.88,584.83,759.28Z"/><path class="cls-30" d="M584.78,751.34l-1.5-76a24.27,24.27,0,0,1,24.16-24.47h0a24.39,24.39,0,0,1,24.47,24.16l.49,75.53Z"/><ellipse class="cls-34" cx="621.76" cy="429.73" rx="30.64" ry="15.69" transform="translate(51.55 925.83) rotate(-75.67)"/><ellipse class="cls-34" cx="405.82" cy="429.73" rx="15.69" ry="30.64" transform="translate(-93.71 113.77) rotate(-14.33)"/><path class="cls-22" d="M479.34,437.72c4.41,0,8-6.59,8-14.67s-3.6-14.67-8-14.67-8,6.59-8,14.67S474.93,437.72,479.34,437.72Z"/><path class="cls-22" d="M548.33,437.72c4.41,0,8-6.59,8-14.67s-3.6-14.67-8-14.67-8,6.59-8,14.67S543.92,437.72,548.33,437.72Z"/><path class="cls-35" d="M472.18,485.71c19.4,5.52,61.05,6.54,83.31,0Z"/><path class="cls-32" d="M497.64,454.32c6.22,15.85,26.17,15.57,32.39,0A23.06,23.06,0,0,1,497.64,454.32Z"/><path class="cls-32" d="M494.48,494.16c7.21,9.79,31.06,9.64,38.7,0C522,498.7,505.64,498.72,494.48,494.16Z"/><path class="cls-33" d="M540.43,388.61c6.26-4.66,17-1.77,22.45,4.06,2.75,2.92.44,3.2-1.41,1.55-6-5.33-13.47-5.33-19.66-2.25C538.52,393.61,537,391.2,540.43,388.61Z"/><path class="cls-33" d="M488.85,388.61c-6.49-4.34-17-.91-22.22,5.18-2.6,3.05-.28,3.22,1.49,1.48,5.71-5.63,13.18-6,19.52-3.23C491,393.5,492.46,391,488.85,388.61Z"/><path class="cls-33" d="M442.32,368a35.18,35.18,0,1,0-35.18-35.18A35.25,35.25,0,0,0,442.32,368Z"/><path class="cls-33" d="M476.9,352.52a35.18,35.18,0,1,0-35.18-35.19A35.25,35.25,0,0,0,476.9,352.52Z"/><path class="cls-33" d="M529.68,347.06a35.18,35.18,0,1,0-35.18-35.18A35.25,35.25,0,0,0,529.68,347.06Z"/><path class="cls-33" d="M577,364.35a35.18,35.18,0,1,0-35.18-35.19A35.25,35.25,0,0,0,577,364.35Z"/><path class="cls-33" d="M604.29,403.48a35.18,35.18,0,1,0-35.18-35.19A35.25,35.25,0,0,0,604.29,403.48Z"/><path class="cls-33" d="M412.29,404.39a35.19,35.19,0,1,0-35.18-35.19A35.25,35.25,0,0,0,412.29,404.39Z"/><path class="cls-33" d="M519.67,366.56a35.19,35.19,0,1,0-35.18-35.19A35.26,35.26,0,0,0,519.67,366.56Z"/><path class="cls-33" d="M471.44,369.63a35.18,35.18,0,1,0-35.18-35.18A35.25,35.25,0,0,0,471.44,369.63Z"/><path class="cls-36" d="M569.22,372.59A35.18,35.18,0,1,0,534,337.41,35.25,35.25,0,0,0,569.22,372.59Z"/><path class="cls-33" d="M594.18,387.28a29.93,29.93,0,1,0-29.93-29.93A30,30,0,0,0,594.18,387.28Z"/><path class="cls-33" d="M434.06,383.53a35.18,35.18,0,1,0-35.19-35.19A35.25,35.25,0,0,0,434.06,383.53Z"/><path class="cls-33" d="M413.44,413.5a24.82,24.82,0,1,0-24.82-24.82A24.87,24.87,0,0,0,413.44,413.5Z"/><path class="cls-33" d="M608.27,413.37a24,24,0,1,0-24-24A24.06,24.06,0,0,0,608.27,413.37Z"/><path class="cls-33" d="M604.1,432.8a15.37,15.37,0,1,0-15.37-15.37A15.4,15.4,0,0,0,604.1,432.8Z"/><path class="cls-33" d="M410.88,431a15.37,15.37,0,1,0-15.37-15.37A15.4,15.4,0,0,0,410.88,431Z"/><path class="cls-33" d="M600.45,450.12a10.82,10.82,0,1,0-10.82-10.82A10.84,10.84,0,0,0,600.45,450.12Z"/><path class="cls-33" d="M412.7,446.15a10.82,10.82,0,1,0-10.82-10.82A10.84,10.84,0,0,0,412.7,446.15Z"/><path class="cls-37" d="M619,995.33a24.88,24.88,0,0,1,1.66,4c6.27,20.23-14.92,19.24-28,16.09-13.71-3.3-20.26-11.47-27.78-13.64-9.9-2.86-14.63-7.33-15.73-14.85,10.51,8.17,26.4,14.87,43.26,20.41A37.36,37.36,0,0,1,619,995.33Z"/><path class="cls-38" d="M611.77,986.8a1.54,1.54,0,1,0,1.82-2.48,16.4,16.4,0,0,0-5.36-2.26h0a1.54,1.54,0,0,0,1.18-.4,1.56,1.56,0,0,0,.42-.39,1.54,1.54,0,0,0-.33-2.15,24.8,24.8,0,0,0-7.63-3.15l.74.05a1.54,1.54,0,1,0,.28-3.06,16.5,16.5,0,0,0-6.4.59V978a42.31,42.31,0,0,1,6.31,1.43,14.78,14.78,0,0,0-3.62,1.49c-.89,0-1.79,0-2.69.07v6.29a17.73,17.73,0,0,1,2.13-2.19,13.68,13.68,0,0,1,1.42-1.07C605.15,984.17,609.75,985.32,611.77,986.8Zm-15.24-13.26a14.69,14.69,0,0,0-2.54,1l-.23,0c-5.06-.4-10.28.08-14.1,2.19a1.54,1.54,0,1,0,1.48,2.7,19.39,19.39,0,0,1,8.87-1.94,30.21,30.21,0,0,0-4.77,6.48,1.54,1.54,0,0,0,1.73,2.54,22.11,22.11,0,0,1,8.18-2.36,34,34,0,0,0-4.53,6.4,1.54,1.54,0,0,0,2.67,1.54,35.8,35.8,0,0,1,3.25-4.86V981a32,32,0,0,0-6.31,1,18.41,18.41,0,0,1,2.86-3.08,13.55,13.55,0,0,1,1.58-1.14q.94.1,1.87.24Z"/><path class="cls-37" d="M442.54,995.33a24.74,24.74,0,0,0-1.66,4c-6.27,20.23,14.92,19.24,28,16.09,13.71-3.3,20.26-11.47,27.78-13.64,9.9-2.86,14.63-7.33,15.73-14.85-10.51,8.17-26.4,14.87-43.26,20.41A37.36,37.36,0,0,0,442.54,995.33Z"/><path class="cls-38" d="M465.42,973.55a14.69,14.69,0,0,1,2.54,1l.23,0c5.06-.4,10.28.08,14.1,2.19a1.54,1.54,0,1,1-1.48,2.7,19.38,19.38,0,0,0-8.87-1.94,30.21,30.21,0,0,1,4.77,6.48,1.54,1.54,0,0,1-1.73,2.54,22.1,22.1,0,0,0-8.18-2.36,33.91,33.91,0,0,1,4.53,6.4,1.54,1.54,0,0,1-2.67,1.54,35.53,35.53,0,0,0-3.25-4.85V981a31.94,31.94,0,0,1,6.31,1,18.4,18.4,0,0,0-2.86-3.08,13.6,13.6,0,0,0-1.58-1.14q-.94.1-1.87.24ZM450.18,986.8a1.54,1.54,0,1,1-1.82-2.48,16.38,16.38,0,0,1,5.36-2.26h0a1.68,1.68,0,0,1-1.27-2.94A24.8,24.8,0,0,1,460,976l-.74.05A1.54,1.54,0,1,1,459,973a16.5,16.5,0,0,1,6.4.59V978a42.32,42.32,0,0,0-6.31,1.43,14.77,14.77,0,0,1,3.62,1.49c.89,0,1.79,0,2.69.07v6.29a17.59,17.59,0,0,0-2.13-2.2,13.63,13.63,0,0,0-1.42-1.07C456.8,984.17,452.2,985.32,450.18,986.8Z"/><path class="cls-17" d="M1253.23,286.77c-166.49,0-126.37,220.68,0,220.68S1419.71,286.77,1253.23,286.77Z"/><path class="cls-26" d="M1200.09,959.76c-11.62,17.3-27.09,27.25-31,39.74-6.24,20.16,16.23,20.18,29.45,16.38,12.39-3.56,19.19-11.87,26.35-13.93,18.46-5.33,18.94-16.25,11.47-42.18S1209.44,943.57,1200.09,959.76Z"/><path class="cls-26" d="M1305.54,959.76c11.62,17.3,27.09,27.25,31,39.74,6.36,20.54-17.33,19.91-30.19,16.11-12.18-3.6-18.51-11.62-25.61-13.66-18.46-5.33-18.94-16.25-11.47-42.18S1296.19,943.57,1305.54,959.76Z"/><path class="cls-28" d="M1187.9,736.3h130.66V974.22h-54.27V801.44c0-14.83-22.12-14.91-22.12,0V974.22H1187.9Z"/><path class="cls-18" d="M1218.48,578.39l-31.78,100a24.38,24.38,0,0,1-30.53,15.81h0a24.38,24.38,0,0,1-15.81-30.53l31.78-100C1181.37,534.61,1227.23,550.83,1218.48,578.39Z"/><path class="cls-18" d="M1171.86,755h0a5.93,5.93,0,0,1,5.14,6.59l-1.75,14.24a5.93,5.93,0,0,1-6.59,5.14h0a5.92,5.92,0,0,1-5.14-6.59l1.75-14.24A5.93,5.93,0,0,1,1171.86,755Z"/><path class="cls-18" d="M1177,761.57l.85-7.9-47.29-5.54-.85,7.9C1125.9,790.92,1172.64,801.93,1177,761.57Z"/><path class="cls-18" d="M1177.85,753.67l9.16-75.42a24.27,24.27,0,0,0-21.56-26.78h0A24.38,24.38,0,0,0,1138.67,673l-8.11,75.1Z"/><path class="cls-18" d="M1288.49,578.39l31.78,100a24.39,24.39,0,0,0,30.54,15.81h0a24.38,24.38,0,0,0,15.81-30.53l-31.78-100C1325.6,534.61,1279.74,550.83,1288.49,578.39Z"/><path class="cls-18" d="M1335.11,755h0a5.93,5.93,0,0,0-5.14,6.59l1.76,14.24a5.92,5.92,0,0,0,6.59,5.14h0a5.93,5.93,0,0,0,5.14-6.59l-1.76-14.24A5.93,5.93,0,0,0,1335.11,755Z"/><path class="cls-18" d="M1330,761.57l-.85-7.9,47.29-5.54.85,7.9C1381.07,790.92,1334.33,801.93,1330,761.57Z"/><path class="cls-18" d="M1329.12,753.67,1320,678.25a24.27,24.27,0,0,1,21.56-26.78h0A24.38,24.38,0,0,1,1368.3,673l8.1,75.09Z"/><rect class="cls-39" x="1187.9" y="548.18" width="130.65" height="205.99"/><path class="cls-18" d="M1253.23,451.07h0a29.59,29.59,0,0,1,29.5,29.51v67.6a29.59,29.59,0,0,1-29.5,29.5h0a29.59,29.59,0,0,1-29.51-29.5v-67.6A29.59,29.59,0,0,1,1253.23,451.07Z"/><path class="cls-21" d="M1282.73,526.17h0c0,25.34-59,25.34-59,0h0C1223.72,500.83,1282.73,500.83,1282.73,526.17Z"/><path class="cls-18" d="M1253.23,293.79c-166.25,0-126.2,241.3,0,241.3S1419.48,293.79,1253.23,293.79Z"/><ellipse class="cls-40" cx="1145.3" cy="429.73" rx="15.69" ry="30.64" transform="translate(-70.71 296.74) rotate(-14.33)"/><ellipse class="cls-40" cx="1361.24" cy="429.73" rx="30.64" ry="15.69" transform="translate(608.07 1642.32) rotate(-75.67)"/><path class="cls-22" d="M1287.71,437.72c4.41,0,8-6.59,8-14.67s-3.59-14.67-8-14.67-8,6.59-8,14.67S1283.31,437.72,1287.71,437.72Z"/><path class="cls-22" d="M1218.73,437.72c4.41,0,8-6.59,8-14.67s-3.6-14.67-8-14.67-8,6.59-8,14.67S1214.33,437.72,1218.73,437.72Z"/><path class="cls-21" d="M1269.42,454.32c-6.22,15.85-26.18,15.57-32.39,0A23.06,23.06,0,0,0,1269.42,454.32Z"/><path class="cls-17" d="M1161.35,431.58c1.82,17.65-2.47,12.65-8.81-1.19s-11-27.65-9.85-41.32c10.69-132,207-133.62,221,0,1.43,13.64-3.51,27.48-9.85,41.32s-10.63,18.84-8.81,1.19c2.21-21.43-1.09-52.28-12.43-70.43-20.07-32.12-46.25-13.48-81.75-13.48s-52.14-14.49-75.31,15.16C1161.49,380.81,1159,408.7,1161.35,431.58Z"/><path class="cls-17" d="M1142.89,386.74c-13.21-138.9,233.56-135.57,220.66,0C1335,303.89,1171.48,303.89,1142.89,386.74Z"/><path class="cls-24" d="M1294.88,477.79c-14.36,25.27-65.84,26-83.31,0C1236.17,487.51,1271.56,486.84,1294.88,477.79Z"/><path class="cls-17" d="M1303.95,400.07c41.74-64.82,13.63-82.6-33.16-101.78C1330.84,290.29,1402.3,349.23,1303.95,400.07Z"/><path class="cls-17" d="M1253,396c64-49.72,44.52-71.18,9.3-97.58C1327.19,303.13,1375.32,370,1253,396Z"/><path class="cls-17" d="M1207.29,381.46c55.68-33,65.29-56.62,35.1-93.6C1310.76,308.59,1335,379.1,1207.29,381.46Z"/><path class="cls-17" d="M1159.23,376.15c29.5-33,45.27-47.33,47.2-81.32C1278.34,313,1327.83,347.13,1159.23,376.15Z"/><path class="cls-41" d="M1292.22,577.71l17.7,61.34,46.93-12.73-17.91-62.09C1330.49,534.93,1284.2,549.93,1292.22,577.71Z"/><path class="cls-41" d="M1215.75,577.71l-17.7,61.34-46.93-12.73L1169,564.23C1177.49,534.93,1223.77,549.93,1215.75,577.71Z"/><polygon class="cls-42" points="1151.12 626.32 1153.63 617.59 1187.9 626.78 1187.9 636.3 1151.12 626.32"/><path class="cls-43" d="M1170.84,995.84a24.76,24.76,0,0,0-1.66,4c-6.26,20.23,15.11,19.82,28.21,16.67,13.71-3.3,20.07-12,27.59-14.22,9.9-2.85,14.63-7.32,15.73-14.85-10.51,8.17-26.4,14.87-43.26,20.41A37.36,37.36,0,0,0,1170.84,995.84Z"/><path class="cls-44" d="M1193.34,974.06a14.68,14.68,0,0,1,2.54,1l.23,0c5.06-.4,10.28.08,14.1,2.19a1.54,1.54,0,0,1-1.48,2.7,19.35,19.35,0,0,0-8.87-1.94,30.15,30.15,0,0,1,4.77,6.48,1.54,1.54,0,0,1-1.72,2.54,22.1,22.1,0,0,0-8.19-2.36,33.67,33.67,0,0,1,4.53,6.4,1.54,1.54,0,0,1-2.66,1.55,36,36,0,0,0-3.25-4.86v-6.29a32,32,0,0,1,6.31,1,18.22,18.22,0,0,0-2.86-3.08,13.15,13.15,0,0,0-1.58-1.14q-1,.1-1.87.24Zm-15.24,13.26a1.54,1.54,0,1,1-1.82-2.49,16.42,16.42,0,0,1,5.36-2.26h0a1.53,1.53,0,0,1-1.18-.39,1.5,1.5,0,0,1-.42-.39,1.54,1.54,0,0,1,.33-2.15,24.82,24.82,0,0,1,7.63-3.15l-.74.05a1.54,1.54,0,0,1-.28-3.06,16.51,16.51,0,0,1,6.4.59v4.45a42.48,42.48,0,0,0-6.31,1.43,14.91,14.91,0,0,1,3.62,1.49c.89,0,1.79,0,2.69.07v6.29a17.93,17.93,0,0,0-2.13-2.2,13.36,13.36,0,0,0-1.42-1.07C1184.71,984.68,1180.12,985.83,1178.09,987.31Z"/><path class="cls-43" d="M1334.78,995.65a24.6,24.6,0,0,1,1.66,4c6.26,20.22-15.31,19.81-28.4,16.66-13.71-3.3-19.87-12-27.4-14.22-9.9-2.85-14.63-7.32-15.73-14.85,10.51,8.17,26.4,14.87,43.25,20.41A37.36,37.36,0,0,1,1334.78,995.65Z"/><path class="cls-44" d="M1327.53,987.12a1.54,1.54,0,0,0,1.82-2.49,16.54,16.54,0,0,0-5.36-2.26h0a1.53,1.53,0,0,0,1.18-.4,1.64,1.64,0,0,0,.42-.39,1.54,1.54,0,0,0-.33-2.15,24.87,24.87,0,0,0-7.63-3.14l.74.05a1.54,1.54,0,0,0,.28-3.06,16.51,16.51,0,0,0-6.4.59v4.45a42.82,42.82,0,0,1,6.31,1.43,14.77,14.77,0,0,0-3.61,1.49c-.89,0-1.79,0-2.69.07v6.29a18,18,0,0,1,2.14-2.2,13.83,13.83,0,0,1,1.41-1.07C1320.91,984.48,1325.5,985.64,1327.53,987.12Zm-15.25-13.26a15,15,0,0,0-2.54,1l-.23,0c-5.06-.4-10.28.08-14.1,2.19a1.54,1.54,0,0,0,1.48,2.7,19.37,19.37,0,0,1,8.87-1.94,30.26,30.26,0,0,0-4.77,6.47,1.54,1.54,0,0,0,1.73,2.54,22.1,22.1,0,0,1,8.18-2.36,34.3,34.3,0,0,0-4.53,6.4,1.54,1.54,0,1,0,2.66,1.54,36.29,36.29,0,0,1,3.25-4.85V981.3a31.82,31.82,0,0,0-6.31,1,18.36,18.36,0,0,1,2.87-3.08,12.74,12.74,0,0,1,1.58-1.14c.63.07,1.25.15,1.86.24Z"/><polygon class="cls-41" points="1223.72 563.76 1253.23 577.68 1282.73 563.76 1318.55 636.71 1187.9 636.3 1223.72 563.76"/><polygon class="cls-42" points="1221.97 537.05 1212.33 548.17 1224.19 594.91 1244.22 571.17 1221.97 537.05"/><polygon class="cls-42" points="1285.03 537.05 1294.67 548.17 1282.8 594.91 1262.77 571.17 1285.03 537.05"/><path class="cls-45" d="M1265,573.86a21.25,21.25,0,0,1-11.81,3.82l9.54-6.51,2.27,2.68Zm-11.81,3.82-9-6.51-2.8,3.32A28,28,0,0,0,1253.23,577.68Z"/><polygon class="cls-42" points="1356.86 626.32 1354.34 617.59 1318.55 627.19 1318.55 636.71 1356.86 626.32"/><path class="cls-46" d="M151.63,305c129.29,0,141.68,151,93.68,237.46-21.11,38-55.47,51-94.08,51s-73-13.06-94-51.17C9.58,455.85,22.42,305,151.63,305Z"/><path class="cls-18" d="M189.43,975.42c8.68,12.57,20.25,19.8,23.13,28.87,1.63,5.13.42,11.61-4.79,12.25-22.42,2.77-28.93-8.24-36.91-10.48-13.8-3.87-14.15-11.81-8.57-30.64S182.44,963.66,189.43,975.42Z"/><path class="cls-18" d="M202.51,736.56H100L113,975.42h27.13l5.52-181.67c.44-14.4,10.64-14.49,11.08,0l5.52,181.67h27.13Z"/><polygon class="cls-18" points="25.72 627.1 11.86 644.62 33.52 659.27 48.24 648.07 46.19 630.86 25.72 627.1"/><path class="cls-47" d="M105.27,591.7,51.53,644.83c-7.93-5.69-21.32-13.27-25.8-17.72l46.55-55.86C91.47,548.21,125.54,571.66,105.27,591.7Z"/><path class="cls-47" d="M194.91,581.71l18.18,101c2.2,12.25,26.46.47,26.1-5.81l-5.28-92.18C232.22,555.14,189.92,554,194.91,581.71Z"/><polygon class="cls-47" points="90.19 561.67 99.96 736.56 152.07 736.56 202.51 736.56 212.28 561.67 90.19 561.67"/><path class="cls-18" d="M151.23,466.89h0a29.59,29.59,0,0,0-29.5,29.5v64.06a29.59,29.59,0,0,0,29.5,29.5h0a29.59,29.59,0,0,0,29.5-29.5V496.39A29.59,29.59,0,0,0,151.23,466.89Z"/><path class="cls-21" d="M121.73,539.9h0c0,24.64,59,24.64,59,0h0C180.74,515.26,121.73,515.26,121.73,539.9Z"/><path class="cls-18" d="M151.23,314c129.09,0,119.21,121,94.58,163.6-33.61,58.11-78.82,71-94.58,71s-61-12.86-94.58-71C32,435,22.14,314,151.23,314Z"/><path class="cls-18" d="M208.85,750.64h0c-1-.67-2.23.67-2.31,1.84l-1.29,17.31c-.09,1.17,1,1.75,2,2.42h0c1,.67,2.23-.67,2.32-1.84l1.29-17.31A2.34,2.34,0,0,0,208.85,750.64Z"/><path class="cls-18" d="M206.49,758l.57-7.44,24.59,3.54-.57,7.44C228.7,784,203.7,785.25,206.49,758Z"/><path class="cls-18" d="M206.78,752.79l5.31-71.5c4.59-18.95,26.1-21.22,27.1-4.37l-8,79.31Z"/><path class="cls-18" d="M84.31,679h0c0-1.17,1.9-1.32,2.91-.68l15,9.43c1,.64.81,1.86.76,3h0c-.05,1.17-1.89,1.32-2.91.68l-15-9.43A2.28,2.28,0,0,1,84.31,679Z"/><path class="cls-29" d="M202.51,736.56l-3.8,69.3H104L100,736.56l47.73-146.81a35,35,0,0,0,6.59.06Z"/><path class="cls-18" d="M113,975.42c-8.68,12.57-20.24,19.8-23.13,28.87-1.63,5.13-.42,11.61,4.79,12.25,22.42,2.77,28.93-8.24,36.91-10.48,13.8-3.87,14.15-11.81,8.57-30.64S120,963.66,113,975.42Z"/><path class="cls-22" d="M116.74,453.92c4.41,0,8-6.41,8-14.26s-3.6-14.26-8-14.26-8,6.41-8,14.26S112.33,453.92,116.74,453.92Z"/><path class="cls-22" d="M185.73,453.92c4.41,0,8-6.41,8-14.26s-3.6-14.26-8-14.26-8,6.41-8,14.26S181.32,453.92,185.73,453.92Z"/><path class="cls-21" d="M135,470c6.22,15.41,26.17,15.14,32.39,0A23.53,23.53,0,0,1,135,470Z"/><path class="cls-41" d="M205.28,993.4c3.37,3.65,6.08,7.1,7.28,10.88,4.22,13.25-7.58,13.6-17.22,12.36-12.85-1.66-18.21-8.82-24.48-10.58-12.4-3.48-13.94-10.24-10.08-25.23.53,13.08,12.77,16.64,26.35,23.08S211.68,1004,205.28,993.4Z"/><path class="cls-41" d="M97.12,993.4c-3.37,3.65-6.08,7.1-7.28,10.88-4.83,15.17,12.39,14,22.12,11.39,9.44-2.56,14.17-8.09,19.57-9.61,12.4-3.48,13.94-10.24,10.08-25.23-.53,13.08-12.77,16.64-26.35,23.08S90.73,1004,97.12,993.4Z"/><path class="cls-18" d="M87.32,678.71l-53-41.55C16,629.29-.86,652.63,20.58,664l54.86,35.67Z"/><path class="cls-18" d="M91.81,681.65l-6.45-4.05L73.43,698.8l6.45,4.05C99.71,714.52,115.83,695.9,91.81,681.65Z"/><path class="cls-46" d="M120.36,407.66c-7.85-1.85-16.88,2.43-20.74,9.24-1.94,3.41-.61,3.82.7,1.74,5.11-8.11,12.78-8.89,19.55-7.48C123.45,411.9,124.37,408.6,120.36,407.66Z"/><path class="cls-46" d="M182.05,407.66c7.86-1.85,16.88,2.43,20.74,9.24,1.94,3.41.61,3.82-.7,1.74-5.11-8.11-12.78-8.89-19.55-7.48C179,411.9,178,408.6,182.05,407.66Z"/><polygon class="cls-29" points="239.19 676.92 212.1 681.28 209.92 661.17 237.75 656.27 239.19 676.92"/><path class="cls-46" d="M244.35,541.05c61.27-186.68-18.57-231.88-92.16-233-74.14-1.13-155,48.26-94.3,231.18.25-78.28,40.54-151,93.23-180.49C203.81,388.24,244.11,462.77,244.35,541.05Z"/><path class="cls-48" d="M83.37,558C8.76,468.32,117,358.87,151.12,339.57,108,335.89-8.47,459.33,83.37,558Z"/><path class="cls-48" d="M218.88,558c74.61-89.67-33.59-199.11-67.75-218.42C194.3,335.89,310.72,459.33,218.88,558Z"/><path class="cls-18" d="M257.41,417.29c-2.9-.72-6,.15-9,2.25a142.39,142.39,0,0,1,12.56,41.21A54.11,54.11,0,0,0,265,449.92C269.22,434,265.81,419.38,257.41,417.29Z"/><path class="cls-18" d="M46.87,417.29c2.9-.72,6,.15,9,2.25a142.32,142.32,0,0,0-12.56,41.21,54,54,0,0,1-4.09-10.83C35.06,434,38.47,419.38,46.87,417.29Z"/><path class="cls-24" d="M109.58,501.19c18.68,8.4,60.21,9.92,83.3,0A369.92,369.92,0,0,1,109.58,501.19Z"/><path class="cls-21" d="M131.88,509.64c7.21,9.79,31.06,9.64,38.7,0C159.43,514.18,143,514.2,131.88,509.64Z"/><polygon class="cls-29" points="22.46 631.02 48.24 648.07 62.63 633.85 35.75 615.07 22.46 631.02"/></svg>