<svg id="Camada_1" data-name="Camada 1" xmlns="http://www.w3.org/2000/svg" viewBox="0 0 1924.2 1197.61"><defs><style>.cls-1{fill:#425b73;}.cls-2{fill:#51708c;}.cls-3{fill:#4a6680;}.cls-4{fill:#b3b3b3;}.cls-5{fill:#e6e6e6;}.cls-6{fill:#c3a76f;}.cls-7{fill:#e0f0ff;}.cls-8{fill:#edf6ff;}.cls-9{fill:#72bab6;opacity:0.3;}.cls-10{fill:#4ea0ac;opacity:0.1;}.cls-11{fill:#fff;}.cls-12{fill:#666;}.cls-13{fill:gray;}.cls-14{fill:#fbb03b;}.cls-15{fill:#ffbd32;}.cls-16{fill:#c4a870;}.cls-17{fill:#f7931e;}</style></defs><title>Prancheta 1</title><rect class="cls-1" y="1103.85" width="1924.2" height="93.75" transform="translate(1924.2 2301.46) rotate(180)"/><rect class="cls-2" x="1261.99" y="1103.85" width="662.2" height="46.88" transform="translate(3186.19 2254.58) rotate(180)"/><rect class="cls-3" x="604.15" y="1103.85" width="657.84" height="46.88" transform="translate(1866.14 2254.58) rotate(180)"/><rect class="cls-3" y="1150.73" width="421.78" height="46.88" transform="translate(421.78 2348.34) rotate(180)"/><rect class="cls-2" x="421.78" y="1150.73" width="657.84" height="46.88" transform="translate(1501.41 2348.34) rotate(180)"/><rect class="cls-3" x="1737.47" y="1150.73" width="186.73" height="46.88" transform="translate(3661.67 2348.34) rotate(180)"/><path class="cls-4" d="M136.92,0H0V6.38H1924.2V0H1787.28M410.92,0H143.3M684.91,0H417.3M958.91,0H691.29m541.62,0H965.29m541.62,0H1239.29M1780.9,0H1513.29"/><polygon class="cls-5" points="1787.28 78.38 1917.9 78.38 1917.9 6.38 1650.28 6.38 1650.28 78.38 1780.9 78.38 1787.28 78.38"/><polygon class="cls-5" points="1513.29 78.38 1643.9 78.38 1643.9 6.38 1376.29 6.38 1376.29 78.38 1506.91 78.38 1513.29 78.38"/><polygon class="cls-5" points="1239.29 78.38 1369.91 78.38 1369.91 6.38 1102.29 6.38 1102.29 78.38 1232.91 78.38 1239.29 78.38"/><polygon class="cls-5" points="965.29 78.38 1095.91 78.38 1095.91 6.38 828.29 6.38 828.29 78.38 958.91 78.38 965.29 78.38"/><polygon class="cls-5" points="691.29 78.38 821.91 78.38 821.91 6.38 554.29 6.38 554.29 78.38 684.91 78.38 691.29 78.38"/><polygon class="cls-5" points="417.3 78.38 547.91 78.38 547.91 6.38 280.3 6.38 280.3 78.38 410.92 78.38 417.3 78.38"/><polygon class="cls-5" points="143.3 78.38 273.92 78.38 273.92 6.38 6.3 6.38 6.3 78.38 136.92 78.38 143.3 78.38"/><polygon class="cls-5" points="1513.29 84.76 1513.29 156.76 1643.9 156.76 1650.28 156.76 1780.9 156.76 1780.9 84.76 1650.28 84.76 1643.9 84.76 1513.29 84.76"/><rect class="cls-5" x="1787.28" y="84.76" width="136.92" height="72"/><path class="cls-4" d="M1787.28,1097.47v-72H1924.2V940.68H1787.28v-72H1924.2V783.9H1787.28v-72H1924.2V627.11H1787.28v-72H1924.2V470.34H1787.28v-72H1924.2V313.55H1787.28v-72H1924.2V156.76H1787.28v-72H1924.2V0H0V84.76H136.92v72H0v84.79H136.92v72H0v84.76H136.92v72H0v84.76H136.92v72H0v84.79H136.92v72H0v84.79H136.92v72H0v84.76H136.92v72H0v6.38H1924.2v-6.38Zm130.62-307.2v72H1650.28v-72H1917.9ZM554.29,548.72v-72H821.91v72H554.29Zm130.62,6.38v72H417.3v-72H684.91Zm6.38,0H958.91v72H691.29Zm137-6.38v-72h267.62v72H828.29Zm137,6.38h267.62v72H965.29Zm137-6.38v-72h267.62v72H1102.29Zm137,6.38h267.62v72H1239.29Zm137-6.38v-72H1643.9v72H1376.29Zm130.62-156.79H1376.29v-72H1643.9v72h-137Zm0,6.38v72H1239.29v-72h267.62Zm-137-6.38H1102.29v-72h267.62Zm-137,6.38v72H965.29v-72h267.62Zm-137-6.38H828.29v-72h267.62Zm-137,6.38v72H691.29v-72H958.91Zm-137-6.38H554.29v-72H821.91Zm-137,6.38v72H417.3v-72H684.91Zm-137-6.38H280.3v-72H547.91ZM417.3,476.72H547.91v72H280.3v-72h137Zm0,156.76H547.91v72H280.3v-72h137Zm0,78.41H684.91v72H417.3Zm137-6.38v-72H821.91v72H554.29Zm137,6.38H958.91v72H691.29Zm137-6.38v-72h267.62v72H828.29Zm137,6.38h267.62v72H965.29Zm137-6.38v-72h267.62v72H1102.29Zm137,6.38h267.62v72H1239.29Zm137-6.38v-72H1643.9v72H1376.29Zm137,6.38H1780.9v72H1513.29Zm130.61-84.79H1513.29v-72H1780.9v72h-137Zm0-156.76H1513.29v-72H1780.9v72h-137Zm0-156.79H1513.29v-72H1780.9v72h-137Zm0-78.38H1376.29v-72H1643.9Zm-137,6.38v72H1239.29v-72h267.62Zm-137-6.38H1102.29v-72h267.62Zm-137,6.38v72H965.29v-72h267.62Zm-137-6.38H828.29v-72h267.62Zm-137,6.38v72H691.29v-72H958.91Zm-137-6.38H554.29v-72H821.91Zm-137,6.38v72H417.3v-72H684.91Zm-137-6.38H280.3v-72H547.91Zm-137,6.38v72H143.3v-72H410.92ZM280.3,398.32H410.92v72H143.3v-72h137Zm0,156.79H410.92v72H143.3v-72h137Zm0,156.79H410.92v72H143.3v-72h137Zm0,156.79H410.92v72H143.3v-72h137Zm0-6.38v-72H547.91v72H280.3Zm137,6.38H684.91v72H417.3Zm137-6.38v-72H821.91v72H554.29Zm137,6.38H958.91v72H691.29Zm137-6.38v-72h267.62v72H828.29Zm137,6.38h267.62v72H965.29Zm137-6.38v-72h267.62v72H1102.29Zm137,6.38h267.62v72H1239.29Zm137-6.38v-72H1643.9v72H1376.29Zm137,6.38H1780.9v72H1513.29Zm404.61-235.2v72H1650.28v-72H1917.9Zm0-156.76v72H1650.28v-72H1917.9Zm0-156.79v72H1650.28v-72H1917.9Zm0-156.79v72H1650.28v-72H1917.9ZM1650.28,6.38H1917.9v72H1650.28Zm0,78.38H1780.9v72H1513.29v-72h137Zm-274-78.38H1643.9v72H1376.29Zm0,78.38h130.62v72H1239.29v-72h137Zm-274-78.38h267.62v72H1102.29Zm0,78.38h130.62v72H965.29v-72h137Zm-274-78.38h267.62v72H828.29Zm0,78.38H958.91v72H691.29v-72h137Zm-274-78.38H821.91v72H554.29Zm0,78.38H684.91v72H417.3v-72h137ZM280.3,6.38H547.91v72H280.3Zm0,78.38H410.92v72H143.3v-72h137ZM6.3,78.38v-72H273.92v72H6.3Zm0,156.79v-72H273.92v72H6.3Zm0,156.76v-72H273.92v72H6.3Zm0,156.79v-72H273.92v72H6.3Zm0,156.79v-72H273.92v72H6.3Zm0,156.79v-72H273.92v72H6.3Zm130.62,156.76H6.3v-72H273.92v72h-137Zm274,78.41H143.3v-72H410.92Zm0-78.41H280.3v-72H547.91v72h-137Zm274,78.41H417.3v-72H684.91Zm0-78.41H554.29v-72H821.91v72h-137Zm274,78.41H691.29v-72H958.91Zm0-78.41H828.29v-72h267.62v72h-137Zm274,78.41H965.29v-72h267.62Zm0-78.41H1102.29v-72h267.62v72h-137Zm274,78.41H1239.29v-72h267.62Zm0-78.41H1376.29v-72H1643.9v72h-137Zm274,78.41H1513.29v-72H1780.9Zm0-78.41H1650.28v-72H1917.9v72h-137Z"/><polygon class="cls-5" points="1239.29 84.76 1239.29 156.76 1369.91 156.76 1376.29 156.76 1506.91 156.76 1506.91 84.76 1376.29 84.76 1369.91 84.76 1239.29 84.76"/><polygon class="cls-5" points="965.29 84.76 965.29 156.76 1095.91 156.76 1102.29 156.76 1232.91 156.76 1232.91 84.76 1102.29 84.76 1095.91 84.76 965.29 84.76"/><polygon class="cls-5" points="691.29 84.76 691.29 156.76 821.91 156.76 828.29 156.76 958.91 156.76 958.91 84.76 828.29 84.76 821.91 84.76 691.29 84.76"/><polygon class="cls-5" points="417.3 84.76 417.3 156.76 547.91 156.76 554.29 156.76 684.91 156.76 684.91 84.76 554.29 84.76 547.91 84.76 417.3 84.76"/><polygon class="cls-5" points="143.3 84.76 143.3 156.76 273.92 156.76 280.3 156.76 410.92 156.76 410.92 84.76 280.3 84.76 273.92 84.76 143.3 84.76"/><rect class="cls-5" y="84.76" width="136.92" height="72"/><polygon class="cls-5" points="1780.9 163.14 1650.28 163.14 1650.28 235.17 1780.9 235.17 1787.28 235.17 1917.9 235.17 1917.9 163.14 1787.28 163.14 1780.9 163.14"/><polygon class="cls-5" points="1506.91 163.14 1376.29 163.14 1376.29 235.17 1506.91 235.17 1513.29 235.17 1643.9 235.17 1643.9 163.14 1513.29 163.14 1506.91 163.14"/><polygon class="cls-5" points="1232.91 163.14 1102.29 163.14 1102.29 235.17 1232.91 235.17 1239.29 235.17 1369.91 235.17 1369.91 163.14 1239.29 163.14 1232.91 163.14"/><polygon class="cls-5" points="958.91 163.14 828.29 163.14 828.29 235.17 958.91 235.17 965.29 235.17 1095.91 235.17 1095.91 163.14 965.29 163.14 958.91 163.14"/><polygon class="cls-5" points="684.91 163.14 554.29 163.14 554.29 235.17 684.91 235.17 691.29 235.17 821.91 235.17 821.91 163.14 691.29 163.14 684.91 163.14"/><polygon class="cls-5" points="410.92 163.14 280.3 163.14 280.3 235.17 410.92 235.17 417.3 235.17 547.91 235.17 547.91 163.14 417.3 163.14 410.92 163.14"/><polygon class="cls-5" points="143.3 235.17 273.92 235.17 273.92 163.14 143.3 163.14 136.92 163.14 6.3 163.14 6.3 235.17 136.92 235.17 143.3 235.17"/><polygon class="cls-5" points="1780.9 313.55 1780.9 241.55 1650.28 241.55 1643.9 241.55 1513.29 241.55 1513.29 313.55 1643.9 313.55 1650.28 313.55 1780.9 313.55"/><rect class="cls-5" x="1787.28" y="241.55" width="136.92" height="72"/><polygon class="cls-5" points="1369.91 241.55 1239.29 241.55 1239.29 313.55 1369.91 313.55 1376.29 313.55 1506.91 313.55 1506.91 241.55 1376.29 241.55 1369.91 241.55"/><polygon class="cls-5" points="1095.91 241.55 965.29 241.55 965.29 313.55 1095.91 313.55 1102.29 313.55 1232.91 313.55 1232.91 241.55 1102.29 241.55 1095.91 241.55"/><polygon class="cls-5" points="821.91 241.55 691.29 241.55 691.29 313.55 821.91 313.55 828.29 313.55 958.91 313.55 958.91 241.55 828.29 241.55 821.91 241.55"/><polygon class="cls-5" points="547.91 241.55 417.3 241.55 417.3 313.55 547.91 313.55 554.29 313.55 684.91 313.55 684.91 241.55 554.29 241.55 547.91 241.55"/><polygon class="cls-5" points="273.92 241.55 143.3 241.55 143.3 313.55 273.92 313.55 280.3 313.55 410.92 313.55 410.92 241.55 280.3 241.55 273.92 241.55"/><rect class="cls-5" y="241.55" width="136.92" height="72"/><polygon class="cls-5" points="1780.9 319.93 1650.28 319.93 1650.28 391.94 1780.9 391.94 1787.28 391.94 1917.9 391.94 1917.9 319.93 1787.28 319.93 1780.9 319.93"/><polygon class="cls-5" points="1643.9 391.94 1643.9 319.93 1513.29 319.93 1506.91 319.93 1376.29 319.93 1376.29 391.94 1506.91 391.94 1513.29 391.94 1643.9 391.94"/><polygon class="cls-5" points="1232.91 319.93 1102.29 319.93 1102.29 391.94 1232.91 391.94 1239.29 391.94 1369.91 391.94 1369.91 319.93 1239.29 319.93 1232.91 319.93"/><polygon class="cls-5" points="958.91 319.93 828.29 319.93 828.29 391.94 958.91 391.94 965.29 391.94 1095.91 391.94 1095.91 319.93 965.29 319.93 958.91 319.93"/><polygon class="cls-5" points="684.91 319.93 554.29 319.93 554.29 391.94 684.91 391.94 691.29 391.94 821.91 391.94 821.91 319.93 691.29 319.93 684.91 319.93"/><polygon class="cls-5" points="410.92 319.93 280.3 319.93 280.3 391.94 410.92 391.94 417.3 391.94 547.91 391.94 547.91 319.93 417.3 319.93 410.92 319.93"/><polygon class="cls-5" points="143.3 391.94 273.92 391.94 273.92 319.93 143.3 319.93 136.92 319.93 6.3 319.93 6.3 391.94 136.92 391.94 143.3 391.94"/><polygon class="cls-5" points="1780.9 470.34 1780.9 398.32 1650.28 398.32 1643.9 398.32 1513.29 398.32 1513.29 470.34 1643.9 470.34 1650.28 470.34 1780.9 470.34"/><rect class="cls-5" x="1787.28" y="398.32" width="136.92" height="72.03"/><polygon class="cls-5" points="1369.91 398.32 1239.29 398.32 1239.29 470.34 1369.91 470.34 1376.29 470.34 1506.91 470.34 1506.91 398.32 1376.29 398.32 1369.91 398.32"/><polygon class="cls-5" points="1095.91 398.32 965.29 398.32 965.29 470.34 1095.91 470.34 1102.29 470.34 1232.91 470.34 1232.91 398.32 1102.29 398.32 1095.91 398.32"/><polygon class="cls-5" points="821.91 398.32 691.29 398.32 691.29 470.34 821.91 470.34 828.29 470.34 958.91 470.34 958.91 398.32 828.29 398.32 821.91 398.32"/><polygon class="cls-5" points="547.91 398.32 417.3 398.32 417.3 470.34 547.91 470.34 554.29 470.34 684.91 470.34 684.91 398.32 554.29 398.32 547.91 398.32"/><polygon class="cls-5" points="143.3 398.32 143.3 470.34 273.92 470.34 280.3 470.34 410.92 470.34 410.92 398.32 280.3 398.32 273.92 398.32 143.3 398.32"/><rect class="cls-5" y="398.32" width="136.92" height="72.03"/><polygon class="cls-5" points="1780.9 476.72 1650.28 476.72 1650.28 548.73 1780.9 548.73 1787.28 548.73 1917.9 548.73 1917.9 476.72 1787.28 476.72 1780.9 476.72"/><polygon class="cls-5" points="1513.29 548.73 1643.9 548.73 1643.9 476.72 1513.29 476.72 1506.91 476.72 1376.29 476.72 1376.29 548.73 1506.91 548.73 1513.29 548.73"/><polygon class="cls-5" points="1239.29 548.73 1369.91 548.73 1369.91 476.72 1239.29 476.72 1232.91 476.72 1102.29 476.72 1102.29 548.73 1232.91 548.73 1239.29 548.73"/><polygon class="cls-5" points="965.29 548.73 1095.91 548.73 1095.91 476.72 965.29 476.72 958.91 476.72 828.29 476.72 828.29 548.73 958.91 548.73 965.29 548.73"/><polygon class="cls-5" points="691.29 548.73 821.91 548.73 821.91 476.72 691.29 476.72 684.91 476.72 554.29 476.72 554.29 548.73 684.91 548.73 691.29 548.73"/><polygon class="cls-5" points="280.3 476.72 280.3 548.73 410.92 548.73 417.3 548.73 547.91 548.73 547.91 476.72 417.3 476.72 410.92 476.72 280.3 476.72"/><polygon class="cls-5" points="143.3 548.73 273.92 548.73 273.92 476.72 143.3 476.72 136.92 476.72 6.3 476.72 6.3 548.73 136.92 548.73 143.3 548.73"/><polygon class="cls-5" points="1780.9 627.11 1780.9 555.11 1650.28 555.11 1643.9 555.11 1513.29 555.11 1513.29 627.11 1643.9 627.11 1650.28 627.11 1780.9 627.11"/><rect class="cls-5" x="1787.28" y="555.11" width="136.92" height="72"/><polygon class="cls-5" points="1376.29 627.11 1506.91 627.11 1506.91 555.11 1376.29 555.11 1369.91 555.11 1239.29 555.11 1239.29 627.11 1369.91 627.11 1376.29 627.11"/><polygon class="cls-5" points="1102.29 627.11 1232.91 627.11 1232.91 555.11 1102.29 555.11 1095.91 555.11 965.29 555.11 965.29 627.11 1095.91 627.11 1102.29 627.11"/><polygon class="cls-5" points="828.29 627.11 958.91 627.11 958.91 555.11 828.29 555.11 821.91 555.11 691.29 555.11 691.29 627.11 821.91 627.11 828.29 627.11"/><polygon class="cls-5" points="547.91 555.11 417.3 555.11 417.3 627.11 547.91 627.11 554.29 627.11 684.91 627.11 684.91 555.11 554.29 555.11 547.91 555.11"/><polygon class="cls-5" points="143.3 555.11 143.3 627.11 273.92 627.11 280.3 627.11 410.92 627.11 410.92 555.11 280.3 555.11 273.92 555.11 143.3 555.11"/><rect class="cls-5" y="555.11" width="136.92" height="72"/><polygon class="cls-5" points="1780.9 633.49 1650.28 633.49 1650.28 705.51 1780.9 705.51 1787.28 705.51 1917.9 705.51 1917.9 633.49 1787.28 633.49 1780.9 633.49"/><polygon class="cls-5" points="1513.29 705.51 1643.9 705.51 1643.9 633.49 1513.29 633.49 1506.91 633.49 1376.29 633.49 1376.29 705.51 1506.91 705.51 1513.29 705.51"/><polygon class="cls-5" points="1239.29 705.51 1369.91 705.51 1369.91 633.49 1239.29 633.49 1232.91 633.49 1102.29 633.49 1102.29 705.51 1232.91 705.51 1239.29 705.51"/><polygon class="cls-5" points="965.29 705.51 1095.91 705.51 1095.91 633.49 965.29 633.49 958.91 633.49 828.29 633.49 828.29 705.51 958.91 705.51 965.29 705.51"/><polygon class="cls-5" points="691.29 705.51 821.91 705.51 821.91 633.49 691.29 633.49 684.91 633.49 554.29 633.49 554.29 705.51 684.91 705.51 691.29 705.51"/><polygon class="cls-5" points="280.3 633.49 280.3 705.51 410.92 705.51 417.3 705.51 547.91 705.51 547.91 633.49 417.3 633.49 410.92 633.49 280.3 633.49"/><polygon class="cls-5" points="143.3 705.51 273.92 705.51 273.92 633.49 143.3 633.49 136.92 633.49 6.3 633.49 6.3 705.51 136.92 705.51 143.3 705.51"/><polygon class="cls-5" points="1650.28 783.9 1780.9 783.9 1780.9 711.89 1650.28 711.89 1643.9 711.89 1513.29 711.89 1513.29 783.9 1643.9 783.9 1650.28 783.9"/><rect class="cls-5" x="1787.28" y="711.89" width="136.92" height="72"/><polygon class="cls-5" points="1376.29 783.9 1506.91 783.9 1506.91 711.89 1376.29 711.89 1369.91 711.89 1239.29 711.89 1239.29 783.9 1369.91 783.9 1376.29 783.9"/><polygon class="cls-5" points="1102.29 783.9 1232.91 783.9 1232.91 711.89 1102.29 711.89 1095.91 711.89 965.29 711.89 965.29 783.9 1095.91 783.9 1102.29 783.9"/><polygon class="cls-5" points="828.29 783.9 958.91 783.9 958.91 711.89 828.29 711.89 821.91 711.89 691.29 711.89 691.29 783.9 821.91 783.9 828.29 783.9"/><polygon class="cls-5" points="554.29 783.9 684.91 783.9 684.91 711.89 554.29 711.89 547.91 711.89 417.3 711.89 417.3 783.9 547.91 783.9 554.29 783.9"/><polygon class="cls-5" points="143.3 711.89 143.3 783.9 273.92 783.9 280.3 783.9 410.92 783.9 410.92 711.89 280.3 711.89 273.92 711.89 143.3 711.89"/><rect class="cls-5" y="711.89" width="136.92" height="72"/><polygon class="cls-5" points="1780.9 790.27 1650.28 790.27 1650.28 862.3 1780.9 862.3 1787.28 862.3 1917.9 862.3 1917.9 790.27 1787.28 790.27 1780.9 790.27"/><polygon class="cls-5" points="1513.29 862.3 1643.9 862.3 1643.9 790.27 1513.29 790.27 1506.91 790.27 1376.29 790.27 1376.29 862.3 1506.91 862.3 1513.29 862.3"/><polygon class="cls-5" points="1239.29 862.3 1369.91 862.3 1369.91 790.27 1239.29 790.27 1232.91 790.27 1102.29 790.27 1102.29 862.3 1232.91 862.3 1239.29 862.3"/><polygon class="cls-5" points="965.29 862.3 1095.91 862.3 1095.91 790.27 965.29 790.27 958.91 790.27 828.29 790.27 828.29 862.3 958.91 862.3 965.29 862.3"/><polygon class="cls-5" points="691.29 862.3 821.91 862.3 821.91 790.27 691.29 790.27 684.91 790.27 554.29 790.27 554.29 862.3 684.91 862.3 691.29 862.3"/><polygon class="cls-5" points="417.3 862.3 547.91 862.3 547.91 790.27 417.3 790.27 410.92 790.27 280.3 790.27 280.3 862.3 410.92 862.3 417.3 862.3"/><polygon class="cls-5" points="143.3 862.3 273.92 862.3 273.92 790.27 143.3 790.27 136.92 790.27 6.3 790.27 6.3 862.3 136.92 862.3 143.3 862.3"/><polygon class="cls-5" points="1650.28 940.68 1780.9 940.68 1780.9 868.68 1650.28 868.68 1643.9 868.68 1513.29 868.68 1513.29 940.68 1643.9 940.68 1650.28 940.68"/><rect class="cls-5" x="1787.28" y="868.68" width="136.92" height="72"/><polygon class="cls-5" points="1376.29 940.68 1506.91 940.68 1506.91 868.68 1376.29 868.68 1369.91 868.68 1239.29 868.68 1239.29 940.68 1369.91 940.68 1376.29 940.68"/><polygon class="cls-5" points="1102.29 940.68 1232.91 940.68 1232.91 868.68 1102.29 868.68 1095.91 868.68 965.29 868.68 965.29 940.68 1095.91 940.68 1102.29 940.68"/><polygon class="cls-5" points="828.29 940.68 958.91 940.68 958.91 868.68 828.29 868.68 821.91 868.68 691.29 868.68 691.29 940.68 821.91 940.68 828.29 940.68"/><polygon class="cls-5" points="554.29 940.68 684.91 940.68 684.91 868.68 554.29 868.68 547.91 868.68 417.3 868.68 417.3 940.68 547.91 940.68 554.29 940.68"/><polygon class="cls-5" points="143.3 868.68 143.3 940.68 273.92 940.68 280.3 940.68 410.92 940.68 410.92 868.68 280.3 868.68 273.92 868.68 143.3 868.68"/><rect class="cls-5" y="868.68" width="136.92" height="72"/><polygon class="cls-5" points="1917.9 1019.07 1917.9 947.07 1787.28 947.07 1780.9 947.07 1650.28 947.07 1650.28 1019.07 1780.9 1019.07 1787.28 1019.07 1917.9 1019.07"/><polygon class="cls-5" points="1643.9 1019.07 1643.9 947.07 1513.29 947.07 1506.91 947.07 1376.29 947.07 1376.29 1019.07 1506.91 1019.07 1513.29 1019.07 1643.9 1019.07"/><polygon class="cls-5" points="1369.91 1019.07 1369.91 947.07 1239.29 947.07 1232.91 947.07 1102.29 947.07 1102.29 1019.07 1232.91 1019.07 1239.29 1019.07 1369.91 1019.07"/><polygon class="cls-5" points="1095.91 1019.07 1095.91 947.07 965.29 947.07 958.91 947.07 828.29 947.07 828.29 1019.07 958.91 1019.07 965.29 1019.07 1095.91 1019.07"/><polygon class="cls-5" points="821.91 1019.07 821.91 947.07 691.29 947.07 684.91 947.07 554.29 947.07 554.29 1019.07 684.91 1019.07 691.29 1019.07 821.91 1019.07"/><polygon class="cls-5" points="547.91 1019.07 547.91 947.07 417.3 947.07 410.92 947.07 280.3 947.07 280.3 1019.07 410.92 1019.07 417.3 1019.07 547.91 1019.07"/><polygon class="cls-5" points="273.92 1019.07 273.92 947.07 143.3 947.07 136.92 947.07 6.3 947.07 6.3 1019.07 136.92 1019.07 143.3 1019.07 273.92 1019.07"/><polygon class="cls-5" points="1643.9 1025.45 1513.29 1025.45 1513.29 1097.47 1780.9 1097.47 1780.9 1025.45 1650.28 1025.45 1643.9 1025.45"/><rect class="cls-5" x="1787.28" y="1025.45" width="136.92" height="72.03"/><polygon class="cls-5" points="1369.91 1025.45 1239.29 1025.45 1239.29 1097.47 1506.91 1097.47 1506.91 1025.45 1376.29 1025.45 1369.91 1025.45"/><polygon class="cls-5" points="1095.91 1025.45 965.29 1025.45 965.29 1097.47 1232.91 1097.47 1232.91 1025.45 1102.29 1025.45 1095.91 1025.45"/><polygon class="cls-5" points="821.91 1025.45 691.29 1025.45 691.29 1097.47 958.91 1097.47 958.91 1025.45 828.29 1025.45 821.91 1025.45"/><polygon class="cls-5" points="547.91 1025.45 417.3 1025.45 417.3 1097.47 684.91 1097.47 684.91 1025.45 554.29 1025.45 547.91 1025.45"/><polygon class="cls-5" points="273.92 1025.45 143.3 1025.45 143.3 1097.47 410.92 1097.47 410.92 1025.45 280.3 1025.45 273.92 1025.45"/><rect class="cls-5" y="1025.45" width="136.92" height="72.03"/><circle class="cls-6" cx="1601.07" cy="351.11" r="225.22"/><circle class="cls-7" cx="1601.07" cy="351.11" r="201.42"/><path class="cls-8" d="M1504.41,174.14V528.08a200.64,200.64,0,0,0,25.13,11.29V162.85A200.45,200.45,0,0,0,1504.41,174.14Z"/><path class="cls-8" d="M1707.26,180.44V521.78A201.84,201.84,0,0,0,1726,508.61v-315A201.59,201.59,0,0,0,1707.26,180.44Z"/><path class="cls-8" d="M1557.14,154.53V547.69a201.74,201.74,0,0,0,34.4,4.38V150.15A201.74,201.74,0,0,0,1557.14,154.53Z"/><path class="cls-9" d="M833,670.24a36.52,36.52,0,1,1,36.52,36.52A36.54,36.54,0,0,1,833,670.24Z"/><circle class="cls-9" cx="809.04" cy="757.41" r="36.52"/><circle class="cls-9" cx="856.25" cy="757.41" r="36.52"/><path class="cls-9" d="M869.56,743.28a36.52,36.52,0,1,1,36.52,36.52A36.53,36.53,0,0,1,869.56,743.28Z"/><path class="cls-9" d="M906.08,766.29a36.52,36.52,0,1,1,36.53,36.52A36.54,36.54,0,0,1,906.08,766.29Z"/><path class="cls-9" d="M719.86,720.89a36.52,36.52,0,1,1,36.52,36.52A36.51,36.51,0,0,1,719.86,720.89Z"/><circle class="cls-9" cx="730.95" cy="757.41" r="36.52"/><circle class="cls-9" cx="683.33" cy="729.77" r="36.52"/><circle class="cls-9" cx="669.2" cy="757.41" r="36.52"/><circle class="cls-9" cx="623.8" cy="743.28" r="36.52"/><path class="cls-9" d="M579.67,757.41a36.52,36.52,0,1,1,36.52,36.52A36.51,36.51,0,0,1,579.67,757.41Z"/><path class="cls-9" d="M543.15,706.76a36.52,36.52,0,1,1,36.52,36.52A36.51,36.51,0,0,1,543.15,706.76Z"/><path class="cls-9" d="M520.53,721.56a36.75,36.75,0,1,1,36.75,36.75A36.74,36.74,0,0,1,520.53,721.56Z"/><path class="cls-9" d="M469,707.34a36.75,36.75,0,1,1,36.76,36.75A36.75,36.75,0,0,1,469,707.34Z"/><path class="cls-9" d="M432.21,730.5A36.75,36.75,0,1,1,469,767.25,36.74,36.74,0,0,1,432.21,730.5Z"/><path class="cls-9" d="M505.71,657a36.75,36.75,0,1,1,36.75,36.75A36.74,36.74,0,0,1,505.71,657Z"/><path class="cls-9" d="M397.07,693.25a36.52,36.52,0,1,1,36.52,36.52A36.51,36.51,0,0,1,397.07,693.25Z"/><path class="cls-10" d="M323.35,706.76a36.52,36.52,0,1,1,36.52,36.52A36.51,36.51,0,0,1,323.35,706.76Z"/><path class="cls-9" d="M335.89,670.59a36.75,36.75,0,1,1,36.75,36.75A36.75,36.75,0,0,1,335.89,670.59Z"/><path class="cls-9" d="M262.39,684.81a36.75,36.75,0,1,1,36.75,36.75A36.74,36.74,0,0,1,262.39,684.81Z"/><path class="cls-9" d="M218.92,607.57a36.52,36.52,0,1,1,36.52,36.52A36.52,36.52,0,0,1,218.92,607.57Z"/><circle class="cls-9" cx="200.56" cy="647.85" r="36.52"/><path class="cls-9" d="M116.62,670.24a36.52,36.52,0,1,1,36.52,36.52A36.52,36.52,0,0,1,116.62,670.24Z"/><path class="cls-9" d="M91,660.56a36.52,36.52,0,1,1,36.52,36.52A36.51,36.51,0,0,1,91,660.56Z"/><path class="cls-9" d="M153.15,595.18a36.52,36.52,0,1,1,36.52,36.52A36.51,36.51,0,0,1,153.15,595.18Z"/><circle class="cls-9" cx="423.7" cy="499.82" r="36.75"/><path class="cls-9" d="M579.21,576.58A36.75,36.75,0,1,1,616,613.33,36.74,36.74,0,0,1,579.21,576.58Z"/><path class="cls-11" d="M86.23,688.1s286.94-21.79,461.29,40c154,54.55,444.06,38.23,544.67,28.68A24.54,24.54,0,0,1,1119,784.31c-6.6,52-31.22,158-123,226.27-33.22,24.7-74.09,37.11-115.49,37.11H375.74a197.56,197.56,0,0,1-111.54-34.43C209.37,975.8,131.64,904.49,89.86,783.55c0,0-35.19-14.09-46.31-42.68C27.75,700.25,46.22,690.24,86.23,688.1Z"/><path class="cls-12" d="M126.61,684.37H112.08V285c0-40.25,3.61-64.05,24.12-90.42,19.07-24.55,56.3-34.32,88.5-23.29,37.42,12.84,58.88,49,58.88,99.18H269.06c0-43.58-17.88-74.73-49.06-85.43-26.53-9.08-57-1.33-72.33,18.45-18,23.16-21.06,43.87-21.06,81.5Z"/><path class="cls-13" d="M294.49,278.36a7.88,7.88,0,0,1-7.88,7.88H266a7.86,7.86,0,0,1-7.86-7.88h0A7.86,7.86,0,0,1,266,270.5h20.59a7.87,7.87,0,0,1,7.88,7.86Z"/><path class="cls-12" d="M206.8,351.11a69.51,69.51,0,0,1,139,0"/><rect class="cls-13" x="206.8" y="351.11" width="139.02" height="12.83"/><rect class="cls-12" x="812.18" y="1047.69" width="49.73" height="56.17"/><rect class="cls-12" x="392.33" y="1047.69" width="49.73" height="56.17"/><path class="cls-12" d="M1619.86,637v-6.43a12.66,12.66,0,0,0-1.11-5.13h25.07a3.76,3.76,0,0,0,0-7.51h-35.74c-.38,0-.7-.22-1.09-.22h-11a12.9,12.9,0,0,0-12.86,12.86v74.53h33.92V650.25h26.73v9.52h18.33V637Z"/><path class="cls-11" d="M1757,704.63c10.72,0,19.25,9.56,17.53,20.14-11.68,71.81-84.91,127.14-173.5,127.14s-161.82-55.33-173.5-127.14c-1.72-10.58,6.81-20.14,17.53-20.14Z"/><rect class="cls-6" x="1393.1" y="772.18" width="415.95" height="277.73"/><rect class="cls-12" x="1504.52" y="846.71" width="193.1" height="15.79"/><rect class="cls-12" x="1504.52" y="959.58" width="193.1" height="15.79"/><rect class="cls-14" x="1223.6" y="679.91" width="90.93" height="174.45" rx="1.78" ry="1.78"/><path class="cls-12" d="M1273.63,621.47v-3.61a12.68,12.68,0,1,0-25.37,0v3.61a50.42,50.42,0,1,0,25.37,0Zm-12.69,90.8a42.08,42.08,0,0,1-11.75-82.51,12.58,12.58,0,0,0,23.5,0,42.08,42.08,0,0,1-11.75,82.51Z"/><rect class="cls-15" x="1223.6" y="679.91" width="74.69" height="143.3" rx="1.46" ry="1.46"/><rect class="cls-16" x="722.71" y="96.78" width="204.76" height="204.76"/><rect class="cls-11" x="742.01" y="116.07" width="166.17" height="166.17"/><rect class="cls-15" x="782.7" y="156.77" width="84.78" height="84.78"/><rect class="cls-16" x="984.58" y="199.16" width="204.76" height="204.76"/><rect class="cls-11" x="1003.88" y="218.46" width="166.17" height="166.17"/><rect class="cls-17" x="1044.57" y="259.15" width="84.78" height="84.78"/></svg>